<?xml version="1.0" encoding="iso-8859-1"?>
<!-- Uploaded to: SVG Repo, www.svgrepo.com, Generator: SVG Repo Mixer Tools -->
<!DOCTYPE svg PUBLIC "-//W3C//DTD SVG 1.1//EN" "http://www.w3.org/Graphics/SVG/1.1/DTD/svg11.dtd">
<svg fill="#000000" height="800px" width="800px" version="1.1" id="Capa_1" xmlns="http://www.w3.org/2000/svg" xmlns:xlink="http://www.w3.org/1999/xlink" 
	 viewBox="0 0 478.07 478.07" xml:space="preserve">
<g>
	<path d="M171.152,266.787v-34.211c0-13.287-10.773-24.053-24.045-24.053h-1.109v24.338c0,17.433-14.134,31.567-31.567,31.567
		c-17.433,0-31.566-14.134-31.566-31.567v-24.338h-1.11c-13.271,0-24.046,10.766-24.046,24.053v34.211
		C23.291,286.54,0,323.585,0,366.035c0,54.981,38.98,100.997,90.756,111.934v-49.385c-25.295-9.61-43.404-33.925-43.404-62.548
		c0-36.985,30.086-67.08,67.079-67.08c36.992,0,67.08,30.095,67.08,67.08c0,28.624-18.111,52.938-43.404,62.548v49.385
		c51.773-10.936,90.755-56.953,90.755-111.934C228.861,323.585,205.571,286.54,171.152,266.787z"/>
	<path d="M452.328,223.352c-6.521-8.008-14.027-14.898-22.197-20.755l3.454-33.971c1.34-13.217-8.277-25.025-21.486-26.365
		l-1.111-0.117l-2.466,24.215c-1.649,16.254-15.366,28.37-31.366,28.37c-1.063,0-2.144-0.054-3.237-0.163
		c-17.339-1.765-29.963-17.263-28.19-34.604l2.466-24.222l-1.095-0.109c-6.351-0.647-12.7,1.257-17.648,5.288
		c-4.933,4.031-8.077,9.865-8.724,16.208l-3.454,33.872c-36.483,16.137-63.18,50.834-67.48,93.044
		c-3.097,30.41,5.827,60.212,25.14,83.904c14.212,17.449,32.832,29.995,53.81,36.66l4.994-49.068
		c-8.416-4.193-16-10.011-22.103-17.51c-11.314-13.888-16.554-31.35-14.735-49.185c3.499-34.365,32.139-60.284,66.601-60.284
		c2.298,0,4.595,0.117,6.921,0.355c17.834,1.818,33.895,10.466,45.209,24.354c11.314,13.888,16.554,31.35,14.735,49.185
		c-2.898,28.423-23.244,50.879-49.523,57.854l-4.994,49.099c53.33-5.571,96.072-47.597,101.622-102.152
		C480.564,276.844,471.641,247.041,452.328,223.352z"/>
	<path d="M82.864,180.209c3.483,3.567,7.659,6.451,12.438,8.338l7.291,2.882v41.432c0,6.536,5.301,11.837,11.837,11.837
		c6.534,0,11.838-5.302,11.838-11.837V197.11c4.237-0.232,8.384-1.056,12.3-2.753c2.712-1.171,5.148-2.735,7.43-4.476
		c5.147-3.916,9.232-9.087,11.667-15.268l11.669-29.517c5.271-13.364,1.85-27.977-7.414-37.788l24.339-21.016
		c2.589,2.682,5.471,5.078,8.784,6.844c5.195,2.759,11.037,4.222,16.894,4.222c3.545,0,7.061-0.524,10.45-1.557l30.365-9.239
		c9.171-2.791,16.708-8.98,21.225-17.433c2.051-3.838,3.252-7.953,3.823-12.147l33.925,6.544c-0.185,1.078-0.478,2.127-0.555,3.237
		c-0.693,9.547,2.373,18.804,8.631,26.079l20.763,24.006c2.528,2.928,5.579,5.218,8.832,7.16c5.502,3.299,11.761,5.264,18.326,5.264
		c0.323,0,0.633-0.077,0.972-0.085l-3.346,32.77c-0.662,6.504,4.069,12.316,10.575,12.979c0.415,0.038,0.816,0.062,1.217,0.062
		c5.996,0,11.145-4.54,11.761-10.635l4.67-45.887l10.466-9.039c5.919-5.117,9.681-11.784,11.346-18.874
		c2.559-10.835,0.169-22.689-7.646-31.746l-20.732-24.007c-6.164-7.167-15.12-11.667-24.538-12.354
		c-9.664-0.663-18.895,2.427-26.095,8.632l-12.377,10.69l-50.295-9.688l-2.004-6.582c-2.789-9.171-8.986-16.7-17.447-21.216
		c-8.324-4.44-18.374-5.395-27.314-2.668l-30.395,9.233c-9.156,2.781-16.693,8.977-21.209,17.433
		c-4.518,8.438-5.473,18.149-2.682,27.344l2.682,8.809L140.018,94.94l-6.69-2.65c-18.064-7.114-39.443,2.204-46.564,20.19
		l-11.651,29.502c-3.516,8.902-3.36,18.65,0.446,27.475C77.33,173.534,79.843,177.119,82.864,180.209z M360.555,46.071
		c0.062,0,0.108,0,0.17,0c3.206,0.232,6.242,1.758,8.354,4.2l11.159,12.91l9.587,11.105c2.868,3.323,3.406,7.715,2.173,11.623
		c-1.802-1.681-4.023-2.953-6.673-3.221c-6.567-0.617-12.316,4.069-12.978,10.573l-1.188,11.699c-4.47,1.217-9.603,0-12.685-3.592
		l-6.058-7.013l-14.69-16.978c-2.142-2.481-3.174-5.641-2.943-8.9c0.016-0.171,0.107-0.317,0.139-0.486l10.696,2.066
		c0.756,0.146,1.511,0.215,2.251,0.215c5.565,0,10.512-3.938,11.607-9.595c1-5.217-1.681-10.149-6.135-12.531
		C355.299,46.905,357.549,46.071,360.555,46.071z M196.199,39.452c1.525-2.844,4.162-5.01,7.229-5.942l30.396-9.232
		c1.141-0.347,2.344-0.524,3.545-0.524c2.004,0,3.993,0.5,5.75,1.433c1.064,0.562,1.896,1.403,2.728,2.227
		c-5.04,0.539-9.388,4.13-10.39,9.356c-1.232,6.419,2.96,12.631,9.389,13.864l9.525,1.834c-0.032,1.903-0.371,3.783-1.295,5.51
		c-1.525,2.882-4.1,4.986-7.229,5.942l-30.365,9.24c-3.005,0.933-6.458,0.601-9.309-0.925c-0.725-0.377-1.233-1.008-1.866-1.524
		l8.616-7.437c4.948-4.278,5.488-11.754,1.219-16.701c-4.285-4.972-11.762-5.488-16.694-1.227l-2.28,1.973
		C194.674,44.63,194.904,41.887,196.199,39.452z M97.121,150.676l6.488-16.408l5.164-13.086c1.695-4.261,5.564-7.036,10.034-7.528
		c-3.868,4.369-4.177,10.935-0.262,15.474c2.344,2.713,5.641,4.101,8.956,4.101c2.742,0,5.502-0.949,7.736-2.875l8.71-7.522
		c3.745,3.307,5.317,8.662,3.376,13.572l-5.058,12.801l-6.611,16.708c-1.203,3.037-3.516,5.427-6.489,6.713
		c-0.925,0.401-1.911,0.462-2.897,0.624v-9.44c0-6.536-5.304-11.838-11.838-11.838c-6.536,0-11.837,5.302-11.837,11.838v1.818
		c-2.297-1.302-4.269-3.166-5.318-5.579C95.98,157.042,95.935,153.713,97.121,150.676z"/>
</g>
</svg>