<?xml version="1.0" standalone="no"?>
<!DOCTYPE svg PUBLIC "-//W3C//DTD SVG 20010904//EN"
 "http://www.w3.org/TR/2001/REC-SVG-20010904/DTD/svg10.dtd">
<svg version="1.0" xmlns="http://www.w3.org/2000/svg"
 width="512.000000pt" height="512.000000pt" viewBox="0 0 512.000000 512.000000"
 preserveAspectRatio="xMidYMid meet">

<g transform="translate(0.000000,512.000000) scale(0.100000,-0.100000)"
fill="#000000" stroke="none">
<path d="M535 5102 c-51 -24 -91 -71 -105 -122 -7 -26 -10 -164 -8 -386 l3
-346 24 -19 c30 -25 76 -24 101 1 19 19 20 33 20 368 0 257 3 351 12 360 9 9
88 12 295 12 239 0 289 -3 324 -16 32 -14 86 -67 260 -260 225 -250 257 -281
325 -311 36 -17 108 -18 1047 -23 l1009 -5 24 -28 24 -28 0 -828 c0 -819 0
-827 20 -849 30 -32 82 -30 109 4 21 27 21 32 21 852 0 597 -3 835 -12 863
-23 80 -108 151 -197 165 l-41 7 0 131 c0 106 -4 139 -19 171 -22 47 -64 89
-104 104 -19 8 -373 11 -1119 11 l-1091 0 -73 70 c-119 116 -113 115 -489 118
-295 2 -323 1 -360 -16z m3093 -334 c8 -8 12 -53 12 -135 l0 -123 -886 0
c-796 0 -889 2 -920 16 -28 14 -109 96 -228 232 l-19 22 1014 0 c776 0 1018
-3 1027 -12z"/>
<path d="M441 4003 l-21 -26 2 -923 3 -922 30 -43 c17 -23 48 -52 70 -63 39
-21 51 -21 633 -21 l594 0 24 28 c29 34 30 56 3 90 l-20 27 -585 2 c-507 3
-586 5 -594 18 -6 9 -10 366 -10 918 0 889 0 902 -20 922 -30 30 -83 27 -109
-7z"/>
<path d="M2795 3691 c-78 -36 -115 -102 -115 -205 l0 -64 -167 -4 c-242 -5
-253 -15 -253 -228 0 -210 11 -220 254 -220 l166 0 0 -69 0 -68 -60 -6 c-45
-4 -70 -12 -96 -32 -57 -43 -64 -73 -64 -254 l0 -160 -189 -3 c-210 -3 -220
-6 -268 -78 -22 -31 -23 -43 -23 -208 0 -199 9 -231 80 -271 38 -21 38 -21
1003 -21 l966 0 3 -183 c3 -180 4 -184 30 -224 45 -68 78 -78 263 -78 180 0
202 6 252 72 l28 36 3 261 c4 282 -2 331 -46 425 -35 73 -128 171 -200 209
-119 63 -97 62 -964 62 l-788 0 0 150 0 150 325 0 325 0 0 -75 c0 -62 4 -79
20 -95 30 -30 83 -27 110 7 19 25 21 38 18 120 -2 73 -7 97 -24 120 -28 39
-99 73 -151 73 l-43 0 0 69 0 70 175 3 175 3 32 33 33 32 3 139 c5 222 -7 234
-255 239 l-163 4 0 56 c0 82 -17 131 -59 173 -46 46 -91 59 -206 59 -66 0
-101 -5 -130 -19z m233 -143 c7 -7 12 -38 12 -70 l0 -58 -105 0 -105 0 0 58
c0 32 5 63 12 70 16 16 170 16 186 0z m432 -353 l0 -75 -525 0 -525 0 0 75 0
75 525 0 525 0 0 -75z m-420 -295 l0 -70 -105 0 -105 0 0 70 0 70 105 0 105 0
0 -70z m1232 -703 c71 -35 140 -110 167 -183 19 -50 21 -77 21 -298 0 -213 -2
-245 -16 -250 -32 -12 -241 -7 -252 7 -6 7 -12 86 -14 194 -3 199 -6 208 -72
257 -27 21 -35 21 -1002 24 l-974 2 0 140 0 140 1043 -2 1042 -3 57 -28z"/>
<path d="M4240 1054 c-46 -40 -145 -175 -185 -254 -70 -139 -114 -341 -101
-464 13 -125 102 -249 219 -302 53 -25 75 -29 152 -29 82 0 96 3 157 33 116
57 194 163 213 293 8 53 -7 196 -30 284 -36 137 -120 290 -223 405 -46 52 -50
54 -108 58 -55 4 -63 2 -94 -24z m162 -228 c89 -128 140 -281 142 -426 1 -70
-3 -92 -21 -127 -74 -138 -247 -164 -354 -54 -59 61 -74 113 -64 217 14 153
70 296 167 427 l51 69 19 -23 c10 -13 37 -50 60 -83z"/>
</g>
</svg>
