<?xml version="1.0" standalone="no"?>
<!DOCTYPE svg PUBLIC "-//W3C//DTD SVG 20010904//EN"
 "http://www.w3.org/TR/2001/REC-SVG-20010904/DTD/svg10.dtd">
<svg version="1.0" xmlns="http://www.w3.org/2000/svg"
 width="512.000000pt" height="512.000000pt" viewBox="0 0 512.000000 512.000000"
 preserveAspectRatio="xMidYMid meet">

<g transform="translate(0.000000,512.000000) scale(0.100000,-0.100000)"
fill="#000000" stroke="none">
<path d="M262 4869 c-102 -17 -184 -81 -231 -179 l-26 -55 0 -1675 0 -1675 26
-55 c34 -72 99 -134 169 -163 l55 -22 1302 0 1302 0 22 22 c27 27 29 75 4 103
-17 18 -30 20 -176 20 l-158 0 -3 288 -3 287 -27 52 c-29 55 -86 116 -128 138
-14 7 -104 45 -200 85 -292 121 -280 111 -280 226 0 62 2 68 40 112 45 55 93
154 109 230 6 30 11 148 11 272 0 244 -9 295 -70 390 -65 101 -196 190 -328
225 -89 22 -238 21 -324 -4 -192 -55 -339 -197 -377 -362 -6 -24 -11 -139 -11
-255 0 -178 3 -223 20 -288 22 -87 57 -157 107 -215 31 -37 33 -44 33 -114 0
-57 -4 -80 -18 -95 -9 -12 -118 -63 -241 -114 -254 -105 -307 -141 -352 -240
-23 -51 -24 -63 -27 -337 l-3 -284 -102 5 c-132 6 -187 35 -216 111 -8 20 -11
432 -11 1328 l0 1299 2085 0 2085 0 0 -634 c0 -626 0 -634 21 -660 26 -33 79
-36 109 -6 20 20 20 29 18 1018 l-3 997 -23 47 c-32 65 -94 125 -160 156 l-57
27 -1955 1 c-1101 1 -1978 -2 -2008 -7z m3931 -150 c50 -12 78 -34 106 -80 20
-32 21 -48 21 -296 l0 -263 -2085 0 -2086 0 3 269 c3 254 4 271 24 297 28 39
66 65 105 74 54 13 3862 12 3912 -1z m-2503 -1389 c110 -41 195 -128 221 -224
7 -24 9 -126 7 -261 l-3 -221 -37 -75 c-36 -72 -58 -98 -167 -190 -20 -18 -31
-36 -31 -53 0 -29 40 -76 63 -76 10 0 17 -16 21 -48 8 -60 52 -132 98 -160 19
-12 131 -62 248 -111 116 -49 223 -100 237 -113 50 -45 53 -68 53 -348 l0
-260 -885 0 -885 0 0 254 c0 162 4 265 11 287 21 61 55 86 208 150 277 116
328 140 353 167 36 38 57 84 65 137 4 29 11 45 20 45 23 0 63 47 63 76 0 17
-11 35 -31 53 -109 92 -131 118 -167 190 l-37 75 -3 217 c-4 248 4 294 62 371
105 137 332 189 516 118z"/>
<path d="M369 4468 c-25 -8 -49 -44 -49 -72 0 -7 9 -25 21 -40 27 -34 77 -36
107 -3 53 56 -5 140 -79 115z"/>
<path d="M611 4468 c-52 -19 -65 -68 -30 -112 40 -51 130 -20 129 45 -1 48
-53 85 -99 67z"/>
<path d="M851 4468 c-52 -19 -65 -68 -30 -112 40 -51 130 -20 129 45 -1 48
-53 85 -99 67z"/>
<path d="M1169 4469 c-25 -9 -49 -45 -49 -73 0 -7 9 -25 21 -40 l20 -26 1474
0 1474 0 21 22 c37 40 22 98 -31 117 -41 14 -2891 14 -2930 0z"/>
<path d="M2523 3590 c-51 -12 -83 -38 -104 -83 -15 -35 -19 -66 -19 -187 0
-168 13 -212 72 -248 35 -22 36 -22 725 -22 l690 0 34 23 c63 41 70 70 67 259
-3 186 -8 201 -79 243 -33 19 -54 20 -694 22 -363 1 -675 -2 -692 -7z m1315
-267 l3 -123 -646 0 -645 0 0 118 c0 65 3 122 7 125 3 4 293 6 642 5 l636 -3
3 -122z"/>
<path d="M2543 2873 c-27 -5 -63 -48 -63 -74 0 -10 11 -31 24 -46 l24 -28 469
-3 c257 -2 487 0 511 3 97 14 115 119 24 145 -36 10 -939 13 -989 3z"/>
<path d="M2543 2553 c-27 -5 -63 -48 -63 -74 0 -10 11 -31 24 -46 l24 -28 269
-3 c147 -2 287 -1 311 3 98 15 113 119 21 145 -32 10 -540 12 -586 3z"/>
<path d="M3538 2411 c-214 -75 -395 -144 -405 -153 -40 -41 -7 -118 51 -118
17 0 200 58 406 130 l375 131 500 -174 500 -174 -3 -39 c-7 -89 -56 -299 -104
-444 -83 -250 -216 -494 -382 -700 -120 -149 -325 -338 -473 -435 l-42 -27
-83 60 c-501 363 -825 911 -908 1535 -11 79 -25 146 -32 153 -7 8 -28 16 -45
20 -26 5 -37 1 -57 -19 -31 -31 -32 -56 -11 -202 76 -537 320 -1016 708 -1392
164 -159 379 -315 432 -315 60 -1 326 203 490 373 348 361 581 838 649 1327
20 144 20 175 -1 201 -23 27 -1095 402 -1145 400 -18 -1 -207 -62 -420 -138z"/>
<path d="M4125 1530 l-240 -240 -135 135 c-148 148 -177 168 -222 153 -33 -12
-48 -35 -48 -74 0 -23 34 -62 183 -211 166 -166 186 -183 217 -183 32 0 57 22
312 278 249 249 278 281 278 310 0 42 -30 72 -72 72 -28 0 -59 -27 -273 -240z"/>
</g>
</svg>
