<?xml version="1.0" standalone="no"?>
<!DOCTYPE svg PUBLIC "-//W3C//DTD SVG 20010904//EN"
 "http://www.w3.org/TR/2001/REC-SVG-20010904/DTD/svg10.dtd">
<svg version="1.0" xmlns="http://www.w3.org/2000/svg"
 width="512.000000pt" height="512.000000pt" viewBox="0 0 512.000000 512.000000"
 preserveAspectRatio="xMidYMid meet">

<g transform="translate(0.000000,512.000000) scale(0.100000,-0.100000)"
fill="#FF0000" stroke="none">
<path d="M2505 4868 c-120 -15 -226 -72 -297 -160 -37 -44 -2107 -3693 -2160
-3805 -76 -160 -58 -329 50 -471 50 -66 124 -123 200 -153 l57 -23 1550 -8
c853 -5 1838 -7 2190 -5 629 3 641 3 706 25 127 42 239 150 290 280 32 79 33
243 3 317 -21 52 -2106 3739 -2154 3810 -96 140 -263 215 -435 193z m118 -902
c18 -7 39 -22 48 -32 24 -27 1609 -2830 1633 -2886 17 -41 18 -52 7 -89 -17
-55 -57 -94 -112 -109 -34 -9 -422 -11 -1669 -5 -1553 7 -1626 8 -1655 25 -56
35 -83 108 -61 169 11 33 1567 2789 1621 2872 40 62 118 85 188 55z"/>
<path d="M2480 2998 c-66 -45 -65 -32 -46 -517 9 -240 16 -468 16 -508 0 -61
4 -76 23 -98 43 -51 157 -41 187 14 5 11 10 66 10 122 0 57 7 265 16 464 19
442 18 465 -24 507 -26 27 -40 32 -89 36 -49 3 -64 0 -93 -20z"/>
<path d="M2493 1660 c-45 -23 -83 -84 -83 -131 1 -113 139 -188 231 -126 157
104 20 342 -148 257z"/>
</g>
</svg>
