<?xml version="1.0" standalone="no"?>
<!DOCTYPE svg PUBLIC "-//W3C//DTD SVG 20010904//EN"
 "http://www.w3.org/TR/2001/REC-SVG-20010904/DTD/svg10.dtd">
<svg version="1.0" xmlns="http://www.w3.org/2000/svg"
 width="512.000000pt" height="512.000000pt" viewBox="0 0 512.000000 512.000000"
 preserveAspectRatio="xMidYMid meet">

<g transform="translate(0.000000,512.000000) scale(0.100000,-0.100000)"
fill="#000000" stroke="none">
<path d="M908 5106 c-73 -20 -138 -74 -181 -151 -22 -40 -22 -45 -25 -516 l-3
-477 27 -21 c33 -26 65 -27 95 -2 23 18 24 27 27 145 l4 126 1709 0 1709 0 0
-1790 c0 -1995 6 -1827 -71 -1875 -22 -14 -45 -37 -51 -51 -16 -34 0 -75 36
-92 42 -21 104 6 160 69 83 93 76 -118 74 2294 l-3 2150 -22 40 c-29 54 -87
110 -142 137 l-46 23 -1625 2 c-1286 1 -1635 -1 -1672 -11z m3282 -154 c19 -9
45 -32 57 -51 22 -33 23 -41 23 -287 l0 -254 -1710 0 -1710 0 0 254 c0 246 1
254 23 287 12 19 38 42 57 51 33 17 131 18 1630 18 1499 0 1597 -1 1630 -18z"/>
<path d="M1155 4871 c-22 -10 -57 -36 -77 -59 -131 -145 -26 -372 171 -372
207 0 305 249 154 392 -61 58 -169 75 -248 39z m150 -156 c49 -49 16 -125 -55
-125 -30 0 -43 6 -59 26 -62 79 43 170 114 99z"/>
<path d="M1755 4871 c-53 -24 -111 -90 -126 -143 -40 -149 67 -288 221 -288
207 0 304 249 153 392 -61 58 -169 75 -248 39z m150 -156 c49 -49 16 -125 -55
-125 -30 0 -43 6 -59 26 -62 79 43 170 114 99z"/>
<path d="M2355 4871 c-53 -24 -111 -90 -126 -143 -40 -149 67 -288 221 -288
207 0 304 249 153 392 -61 58 -169 75 -248 39z m150 -156 c49 -49 16 -125 -55
-125 -30 0 -43 6 -59 26 -62 79 43 170 114 99z"/>
<path d="M1812 3913 c-7 -3 -19 -17 -27 -33 -19 -36 -4 -83 31 -99 35 -16
1453 -16 1488 0 35 16 50 63 31 99 -8 15 -22 30 -30 34 -20 7 -1474 7 -1493
-1z"/>
<path d="M722 3747 l-22 -23 0 -1555 c0 -1726 -5 -1605 66 -1688 20 -23 57
-53 82 -69 l47 -27 1027 -3 c1019 -2 1028 -2 1048 18 38 38 22 100 -31 119
-23 8 -322 11 -1011 11 -1081 0 -1018 -4 -1058 63 -20 31 -20 62 -20 1580 l0
1548 -25 24 c-31 32 -74 33 -103 2z"/>
<path d="M1452 3263 c-18 -9 -43 -30 -55 -47 -21 -29 -22 -42 -22 -196 0 -185
4 -198 76 -239 36 -21 43 -21 1109 -21 1066 0 1073 0 1109 21 72 41 76 54 76
239 0 155 -1 167 -22 196 -49 68 23 64 -1165 64 -968 0 -1076 -2 -1106 -17z
m2148 -243 l0 -110 -1040 0 -1040 0 0 110 0 110 1040 0 1040 0 0 -110z"/>
<path d="M1488 2430 c-43 -13 -84 -47 -102 -84 -12 -26 -16 -66 -16 -179 0
-133 2 -147 23 -178 12 -18 38 -44 56 -56 l34 -23 1077 0 1077 0 34 23 c18 12
44 38 56 56 21 31 23 45 23 178 0 168 -9 199 -73 241 l-41 27 -1060 2 c-584 1
-1073 -2 -1088 -7z m2110 -257 l3 -113 -1041 0 -1040 0 0 108 c0 60 3 112 7
115 3 4 470 6 1037 5 l1031 -3 3 -112z"/>
<path d="M2269 1502 c-189 -98 -185 -373 6 -467 36 -18 65 -20 268 -23 262 -3
299 3 364 67 131 127 103 340 -56 423 l-53 28 -238 0 -238 0 -53 -28z m527
-140 c30 -24 44 -55 44 -97 0 -29 -8 -45 -34 -71 l-34 -34 -212 0 -212 0 -34
34 c-37 37 -45 85 -23 129 28 55 37 57 269 57 189 0 218 -3 236 -18z"/>
<path d="M3233 1339 c-17 -5 -43 -23 -57 -40 l-26 -31 0 -498 0 -498 25 -31
c30 -35 84 -55 123 -46 15 3 72 33 127 65 68 39 102 54 107 47 4 -7 40 -68 80
-137 116 -197 148 -207 328 -103 123 71 145 96 145 161 0 40 -11 66 -72 172
-39 69 -73 131 -75 139 -2 8 37 37 102 75 79 47 109 70 123 96 21 40 18 94 -7
132 -19 29 -818 493 -862 501 -16 3 -43 1 -61 -4z m423 -366 c189 -109 344
-201 344 -204 0 -3 -38 -27 -85 -53 -93 -52 -131 -90 -140 -139 -8 -42 2 -67
87 -215 38 -68 69 -125 67 -127 -8 -7 -128 -75 -133 -75 -2 0 -40 61 -83 136
-86 149 -112 174 -182 174 -33 0 -63 -12 -137 -55 l-94 -54 0 404 c0 223 3
405 7 405 3 0 161 -89 349 -197z"/>
</g>
</svg>
