<?xml version="1.0" encoding="utf-8"?>
<!-- Generator: Adobe Illustrator 28.0.0, SVG Export Plug-In . SVG Version: 6.00 Build 0)  -->
<svg version="1.1" id="Calque_1" xmlns="http://www.w3.org/2000/svg" xmlns:xlink="http://www.w3.org/1999/xlink" x="0px" y="0px"
	 viewBox="0 0 388.96 388.96" style="enable-background:new 0 0 388.96 388.96;" xml:space="preserve">
<style type="text/css">
	.st0{fill:#373737;}
	.st1{fill:#3C3C3C;}
	.st2{fill:#3B3B3B;}
	.st3{fill:#FAFAFA;}
	.st4{fill:#F9F9F9;}
	.st5{fill:#FCFCFC;}
	.st6{fill:#FBFBFB;}
	.st7{fill:#3D3D3D;}
	.st8{fill:#477493;}
	.st9{fill:#385A73;}
	.st10{fill:#385A74;}
	.st11{fill:#E7E7E7;}
	.st12{fill:#E5E5E5;}
	.st13{fill:#ECECEC;}
	.st14{fill:#E8E8E8;}
	.st15{fill:#383738;}
	.st16{fill:#373838;}
	.st17{fill:#383838;}
	.st18{fill:#373839;}
	.st19{fill:#383939;}
	.st20{fill:#96C562;}
	.st21{fill:#F17184;}
	.st22{fill:#97C561;}
	.st23{fill:#9AC962;}
	.st24{fill:#EA6F81;}
</style>
<g>
	<g>
		<path class="st0" d="M386.18,284.4c-6.44,9.41-15.1,12.75-26.66,12.45c-27.9-0.72-55.84-0.46-83.76-0.12
			c-9.33,0.11-16.4-2.81-21.58-10.61c-14.31-21.59-28.49-43.27-43.24-64.56c-4.57-6.6-2.18-11.46,0.31-17.77
			c14.17-35.98,14.7-72.47-0.21-108.17c-5.78-13.84-2.42-27.49-4.18-41.12c-0.62-4.81,4.33-13.22-6.47-13.09
			c-9.77,0.12-5.77,7.85-5.71,12.16c0.26,19.48-1.17,37.72-10.47,56.19c-7.21,14.31-2.15,32.39-2.07,48.76
			c0.09,18.6,1.13,36.94-14.69,50.86c-5.01,4.41-2.84,9.72-0.96,15.15c6.03,17.38,11.86,34.84,17.32,52.41
			c3.98,12.81-0.51,19.48-13.81,19.55c-48.86,0.28-97.73-0.02-146.59,0.2c-9.73,0.04-15.36-5.54-20.67-12.3c0-21.97,0-43.95,0-65.92
			c15.47-11.99,9.6-23.97,0-35.96c0-21.97,0-43.95,0-65.92c11.59-11.99,11.59-23.97,0-35.96c0-23.75,0.21-47.5-0.16-71.24
			c-0.09-5.62,1.3-6.89,6.85-6.82c24.73,0.34,49.46,0.15,74.19,0.15c3.5,2.14,5.43,4.91,3.71,9.16c-4.32,7.13-11.56,7.01-18.52,7.29
			c-11.47,0.46-22.95-0.05-34.43,0.38c-9.74,0.36-14.51,5.23-14.81,14.93C18.15,80.82,19.31,75.84,56.05,76
			c34.43,0.15,68.87,0.25,103.3-0.07c16.14-0.15,17.8-2.15,18.47-18.26c0.12-2.99,0.02-5.99,0.16-8.98
			c0.82-17.7,5.95-23.13,22.01-23.34c16.51-0.22,23.91,6.28,25.67,22.56c3.04,28.13,3.04,28.14,30.89,28.13
			c30.44-0.01,60.88,0.19,91.32-0.08c18.82-0.17,21.22-2.85,21.7-21.97c0.86-34.27,0.5-34.65-33.02-34.66
			c-69.37-0.01-138.73,0.09-208.1-0.11c-8.71-0.03-18.35,1.81-24.57-7.26c-1.75-4.27,0.18-7.06,3.7-9.22
			c89.37,0,178.75,0.16,268.12-0.25c8.94-0.04,11.08,1.76,10.75,10.75c-0.81,22.44-0.27,44.94-0.27,67.41
			c-1.36,1.49-1.69,3.83-3.07,5.02c-9.57,8.29-11.5,16.16,0.24,24.29c1.87,1.29,0.89,4.81,2.83,6.64c0,21.97,0,43.95,0,65.92
			c-1.07,1.07-0.95,3.11-1.77,3.76c-14.75,11.65-8.29,22,1.77,32.2C386.18,240.45,386.18,262.42,386.18,284.4z"/>
		<path class="st1" d="M296.31,386.28c-4.9-5.87-11.84-10.2-12.26-19.24c-0.52-11.05,2.72-19.54,13.41-24.07
			c8.46-3.58,14.67,0.87,19.48,6.76c7.05,8.64,7.36,18.28,0.69,27.42c-2.53,3.47-6.19,6.11-9.34,9.13
			C304.3,386.28,300.31,386.28,296.31,386.28z"/>
		<path class="st2" d="M152.52,386.28c-2.07-3.99-4.29-7.67,0.41-11.78c4.93-4.31,4.53-10.41,0.47-14.4
			c-5.08-4.99-3.82-8.48,0.32-12.4c3.1-2.94,5.78-7.79,11.09-5.25c4.95,2.37,4.84,7.86,3.78,11.84
			c-3.07,11.57,6.74,20.83,4.89,31.97C166.5,386.28,159.51,386.28,152.52,386.28z"/>
		<path class="st3" d="M2.73,182.52c0.79,0.53,2.14,0.94,2.27,1.6c1.85,9.46,18.68,6.15,16.31,17.85
			c-1.83,9.02-13.81,9.27-18.58,16.51C2.73,206.49,2.73,194.51,2.73,182.52z"/>
		<path class="st3" d="M386.18,218.48c-0.48-0.1-1.33-0.1-1.4-0.32c-2.75-9.22-19.79-6.88-17.06-18.97
			c1.88-8.32,14.19-8.81,18.45-16.67C386.18,194.51,386.18,206.49,386.18,218.48z"/>
		<path class="st4" d="M386.18,116.6c-0.47-0.15-1.3-0.22-1.35-0.47c-2.25-9.69-19.63-6.92-17.11-18.89
			c1.78-8.45,13.76-9.25,18.46-16.6C386.18,92.63,386.18,104.61,386.18,116.6z"/>
		<path class="st5" d="M2.73,80.64c3.83,8.6,18.51,7.34,18.51,17.97c0,10.64-14.7,9.36-18.51,17.98
			C2.73,104.61,2.73,92.63,2.73,80.64z"/>
		<path class="st6" d="M86.46,8.99c-0.95-2.08-1.89-4.17-2.84-6.25c7.99,0,15.98,0,23.97,0c-1,2.03-2,4.07-3.01,6.1
			C98.58,13.72,92.54,13.7,86.46,8.99z"/>
		<path class="st2" d="M239.28,293.63c-0.03,12.23-8.99,22.26-19.67,22.01c-10.57-0.25-19.53-10.76-18.86-22.81
			c0.66-11.86,6.45-20.01,18.92-21C230.45,270.97,239.31,281.35,239.28,293.63z"/>
		<path class="st1" d="M226.5,351.52c-0.25,10.98-10.76,22.24-20.33,21.78c-10.18-0.49-18.43-11.16-17.9-23.34
			c0.52-12.01,6.46-19.77,18.73-20.62C217.03,328.65,226.75,340.37,226.5,351.52z"/>
		<path class="st2" d="M137.04,338.81c-0.29,11.44-10.65,22.47-20.79,21.08c-12.4-1.7-17.66-10.11-17.63-22.07
			c0.03-11.82,8.41-21.23,18.59-21.3C127.43,316.45,137.32,327.58,137.04,338.81z"/>
		<path class="st7" d="M257.13,367.51c-7.75-1.29-16.9-1.71-7.01-13.66c2.86-3.46,3.31-9.1-0.26-12.28
			c-8.98-7.99-1.43-12.27,3.5-16.35c5.76-4.76,10.19-2.76,11.14,4.81c1.25,9.93-0.46,19.62,5.2,29.73
			C273.68,366.9,263.46,366.98,257.13,367.51z"/>
		<path class="st8" d="M86.46,8.99c6.04-0.05,12.08-0.1,18.12-0.15c3.98,8.53,11.8,5.99,18.4,6.01
			c76.78,0.13,153.56,0.06,230.33,0.09c19.18,0.01,20.61,1.45,20.69,20.24c0.04,10.47-0.06,20.94,0,31.42
			c0.06,9.31-4.58,13.72-13.77,13.71c-42.88-0.01-85.75-0.11-128.63,0.11c-7.58,0.04-11.06-2.5-10.63-10.37
			c0.39-6.96,0.22-13.96,0.03-20.94c-0.44-16.48-4.06-19.2-20.69-19.97c-13.65-0.64-18.44,4.43-18.28,18.18
			c0.37,33.01-0.17,33.02-33.11,33.02c-38.39,0-76.79-0.43-115.16,0.22c-14.42,0.25-20.13-5.18-18.97-19.37
			c0.69-8.42,0.1-16.94,0.13-25.42c0.07-19.31,1.43-20.74,20.12-20.82c12.46-0.05,24.93-0.07,37.39,0.01
			C78.03,14.98,83.59,15.24,86.46,8.99z"/>
		<path class="st8" d="M300.85,182.32c-18.46,0-36.92-0.32-55.37,0.15c-8.69,0.22-12.83-2.03-12.4-11.64
			c0.65-14.44,0.42-28.94,0.07-43.4c-0.18-7.6,2.49-10.66,10.36-10.61c38.91,0.26,77.82,0.14,116.72,0.12
			c9.21,0,13.8,4.44,13.75,13.75c-0.07,12.47-0.12,24.95,0.02,37.42c0.11,10.15-4.96,14.35-14.8,14.26
			C339.76,182.19,320.31,182.31,300.85,182.32z"/>
		<path class="st8" d="M94.08,182.32c-20.97,0-41.94-0.27-62.91,0.11c-11.29,0.2-16.72-4.2-16.34-15.86
			c0.39-11.97,0.15-23.97,0.09-35.95c-0.05-9.35,4.64-13.69,13.83-13.69c42.94,0.02,85.88,0.12,128.81-0.1
			c7.82-0.04,10.6,3.01,10.42,10.63c-0.34,14.47-0.58,28.98,0.07,43.44c0.43,9.75-4.01,11.73-12.56,11.56
			C135.02,182.05,114.55,182.32,94.08,182.32z"/>
		<path class="st8" d="M226.26,221.12c48.09,0,92.38,0.05,136.67-0.04c8.56-0.02,11.21,4.53,11.1,12.28
			c-0.18,12.95-0.26,25.91,0.03,38.86c0.2,9.14-4.24,12.23-12.84,12.17c-27.89-0.21-55.78-0.17-83.67-0.01
			c-5.48,0.03-9.91-1.72-12.88-6.1C252.43,260.29,240.38,242.17,226.26,221.12z"/>
		<path class="st8" d="M94.16,284.32c-21.41,0-42.82-0.36-64.21,0.15c-10.66,0.26-15.75-3.11-15.17-14.48
			c0.63-12.42,0.28-24.89,0.12-37.34c-0.1-8.15,3.59-11.65,11.77-11.61c38.83,0.15,77.66,0.2,116.49-0.06
			c6.81-0.05,9.89,3.11,11.79,8.89c4.97,15.11,9.9,30.22,15.13,45.24c2.53,7.27,0.51,9.5-7.21,9.36
			C139.96,284.06,117.06,284.32,94.16,284.32z"/>
		<path class="st9" d="M105.99,92.62c18.89,0,37.78-0.22,56.66,0.16c4.27,0.09,11.85-3.34,12.19,3.87
			c0.35,7.65-6.84,8.18-13.24,8.04c-9.94-0.23-19.88-0.06-29.82-0.06c-28.33,0-56.66,0.06-84.99-0.07
			c-4.62-0.02-11.07,1.5-10.67-6.46c0.34-6.71,6.04-5.39,10.24-5.42C66.23,92.55,86.11,92.62,105.99,92.62z"/>
		<path class="st10" d="M288.63,206.56c-17.46,0-34.92,0.19-52.36-0.16c-3.19-0.06-9.18,3.03-9.25-3.5
			c-0.06-4.72,3.64-8.04,8.97-8.27c1.49-0.07,2.99-0.12,4.48-0.12c33.91-0.01,67.83-0.06,101.74,0.06
			c4.65,0.02,11.1-1.44,10.61,6.56c-0.41,6.74-6.14,5.33-10.33,5.37C324.54,206.64,306.59,206.56,288.63,206.56z"/>
		<path class="st10" d="M289.11,92.62c17.96,0,35.91-0.06,53.87,0.05c4.29,0.03,9.79-0.94,9.86,5.88c0.07,6.84-5.39,6.01-9.72,6.02
			c-34.41,0.08-68.83,0.08-103.24-0.01c-2.9-0.01-5.98-0.48-8.64-1.57c-2.91-1.2-4.62-4.29-4.43-7.26c0.29-4.48,4.35-3.01,6.93-3.03
			C252.2,92.56,270.66,92.62,289.11,92.62z"/>
		<path class="st10" d="M159.68,194.52c-2.7,8.8-6.71,12.24-14.53,12.17c-32.82-0.29-65.64-0.07-98.47-0.18
			c-4.68-0.02-11.05,1.31-10.58-6.59c0.4-6.69,6.13-5.33,10.31-5.35C83.68,194.47,120.95,194.52,159.68,194.52z"/>
		<path class="st11" d="M303.49,354.84c4.96,1.25,5.66,5.2,5.62,9.17c-0.04,3.98-0.87,8.81-5.72,8.72c-5.37-0.1-6.96-4.89-6.69-9.65
			C296.93,358.88,298.9,355.59,303.49,354.84z"/>
		<path class="st12" d="M220.15,284.37c4.85,0.97,6.21,4.99,6.16,8.87c-0.05,4.32-0.87,9.72-7.06,9.08
			c-4.94-0.51-5.61-5.34-5.47-9.21C213.93,289.24,215,285.13,220.15,284.37z"/>
		<path class="st13" d="M213.22,351.33c-0.48,3.89-0.71,8.39-6,8.31c-4.9-0.08-6.29-4.22-6.31-8.23c-0.03-4.58,1.5-9.57,6.94-9.2
			C212.27,342.52,213.07,347.26,213.22,351.33z"/>
		<path class="st14" d="M124.09,338.58c-0.87,3.99-1.21,8.78-6.39,8.67c-4.92-0.1-6.3-4.68-6.27-8.6c0.03-4.37,0.97-9.65,7.04-9.13
			C123.49,329.97,123.4,334.88,124.09,338.58z"/>
		<path class="st15" d="M47.45,65.82c-10.96-0.06-18.52-8.02-18.03-19.16c0.51-11.5,6.76-17.18,18.15-17.22
			c11.19-0.04,18.64,7.78,18.22,18.96C65.4,58.76,57.91,65.88,47.45,65.82z"/>
		<path class="st16" d="M98.25,29.29c11.94,0.41,18.7,6.12,18.47,18.3c-0.22,11.91-6.85,18.3-18.63,18.1
			c-11.05-0.19-17.26-6.5-17.63-17.63C80.07,35.97,86.44,29.9,98.25,29.29z"/>
		<path class="st16" d="M335.76,54.58c-6.5-3.15-17.49,3.72-17.72-6.76c-0.23-10.67,10.75-6.11,16.51-5.86
			c6.23,0.28,17.92-5.46,17.74,6.17C352.13,58.68,340.64,50.69,335.76,54.58z"/>
		<path class="st16" d="M336.11,143.55c4.8,2.18,15.99-4.39,16.17,5.56c0.21,11.62-11.54,4.48-17.72,6.56
			c-0.9,0.3-2.02,0.21-2.97,0.01c-5.15-1.09-14.03,3.1-13.78-6.27c0.25-9.21,9.06-4.67,14.24-5.83
			C332.99,143.36,334.03,143.55,336.11,143.55z"/>
		<path class="st17" d="M99.71,167.93c-12.16-0.19-19.19-5.54-19.24-17.81c-0.04-11.89,6.34-18.48,18.15-18.57
			c11.05-0.09,17.48,6.04,18.09,17.16C117.35,160.66,111.27,167.07,99.71,167.93z"/>
		<path class="st15" d="M65.81,151.88c-0.74,8.43-5.9,15.41-17.33,15.87c-12,0.47-18.78-5.4-19.05-17.75
			c-0.24-11.17,7.5-18.8,18.6-18.57C58.41,131.65,65.68,139.01,65.81,151.88z"/>
		<path class="st18" d="M334.38,245.48c2.97,0.01,5.95-0.05,8.92,0.03c4.76,0.11,9.45,1.01,9.39,6.96
			c-0.06,5.78-5.04,5.05-8.86,5.17c-5.44,0.17-10.9,0.18-16.34,0.01c-4.26-0.13-9.74,0.94-9.96-5.73c-0.21-6.52,4.91-6.31,9.42-6.43
			C329.43,245.41,331.9,245.46,334.38,245.48z"/>
		<path class="st17" d="M47.94,233.13c11.44,1.48,18,7.44,17.84,19.41c-0.17,12.11-7.39,18.81-18.61,18.45
			c-10.84-0.34-18.44-6.26-17.84-19.04C29.9,239.86,36.42,234.32,47.94,233.13z"/>
		<path class="st19" d="M104.93,262.86c-0.84,5.55-2.69,9.49-9.68,7.92c-7.57-1.71-12.8-5.93-14.34-13.42
			c-2.29-11.16,1.25-20.46,12.87-23.29c8.37-2.04,17.99-2.07,16.48,11.65C98.86,248.43,100.8,255.31,104.93,262.86z"/>
		<path class="st20" d="M104.93,262.86c-1.48-1.27-2.77-2.91-4.46-3.74c-3.9-1.9-9.31-2.8-7.33-8.88c1.78-5.48,6.85-4.37,11.26-4.15
			c1.94,0.1,3.91-0.25,5.87-0.39C110.74,252.13,112.63,258.99,104.93,262.86z"/>
		<path class="st21" d="M47.35,41.78c3.25,0.19,5.66,1.83,5.87,5.2c0.25,4.09-2.15,6.52-6.24,6.27c-3.36-0.2-5.14-2.62-5.16-5.95
			C41.81,43.81,43.79,42,47.35,41.78z"/>
		<path class="st22" d="M99.25,41.76c3.35,0.56,5.35,2.39,5.03,5.93c-0.3,3.3-2.24,5.54-5.61,5.51c-4.23-0.04-6.15-2.89-5.74-6.81
			C93.3,42.94,95.9,41.62,99.25,41.76z"/>
		<path class="st23" d="M104.32,150c-0.22,3.48-2.16,5.33-5.55,5.4c-3.33,0.07-5.72-1.55-5.82-5.04c-0.12-4.01,2.04-6.57,6.19-6.3
			C102.47,144.28,104.11,146.68,104.32,150z"/>
		<path class="st21" d="M47.91,155.44c-3.44,0.14-5.69-1.42-6.08-4.86c-0.37-3.32,1.35-5.98,4.53-6.54
			c3.92-0.68,6.68,1.41,6.89,5.58C53.42,153.09,51.18,154.85,47.91,155.44z"/>
		<path class="st24" d="M53.42,251.97c-0.11,3.57-2.1,5.44-5.5,5.64c-3.35,0.19-5.9-1.29-6.11-4.87c-0.23-4.04,1.89-6.77,6.1-6.6
			C51.24,246.26,53.07,248.6,53.42,251.97z"/>
	</g>
</g>
</svg>
