<?xml version="1.0" encoding="utf-8"?>
<!-- Generator: Adobe Illustrator 28.0.0, SVG Export Plug-In . SVG Version: 6.00 Build 0)  -->
<svg version="1.1" id="Calque_1" xmlns="http://www.w3.org/2000/svg" xmlns:xlink="http://www.w3.org/1999/xlink" x="0px" y="0px"
	 viewBox="0 0 390.48 390.48" style="enable-background:new 0 0 390.48 390.48;" xml:space="preserve">
<style type="text/css">
	.st0{fill:#080C0D;}
	.st1{fill:#101112;}
	.st2{fill:#D4E3E8;}
	.st3{fill:#0E80AB;}
	.st4{fill:#53757D;}
	.st5{fill:#83BE25;}
	.st6{fill:#63848F;}
	.st7{fill:#93DFF3;}
	.st8{fill:#84C7D9;}
</style>
<g>
	<g>
		<path class="st0" d="M386.73,328.99c0,14.96-1.04,30.01,0.32,44.85c1.17,12.8-2.62,17.67-15.28,14.99
			c-4.45-4.73-10.27-2.89-15.51-2.9c-107.34-0.1-214.69-0.1-322.03,0c-5.25,0-11.06-1.83-15.51,2.9
			c-12.66,2.69-16.37-2.19-15.28-14.99c1.35-15.84,0.32-31.89,0.32-47.84c10.69-20.47,30.37-31.2,49.37-40.66
			c8.77-4.37,11.46-6.78,11.41-15.76c-0.33-54.07-0.21-108.14-0.1-162.2c0.01-5.65-2.03-12.25,5.03-15.79
			c9.76,2.24,6.18,10.18,6.2,15.88c0.23,65.82,0.14,131.63,0.14,197.45c0,39.84-0.01,39.57,39.66,38.83
			c8.35-0.16,11.31-2.17,10.97-10.83c-0.65-16.43,0.06-32.91-0.28-49.35c-0.18-8.89,3.63-12.95,12.37-12.8
			c4.49,0.08,8.98-0.06,13.46-0.01c40.24,0.44,35.98-5.33,36.11,35.61c0.13,37.77,0.03,37.38,38.3,37.35
			c9.94-0.01,12.66-2.8,12.55-12.52c-0.47-40.88-0.2-81.77-0.2-122.66c0-58.84,0.01-117.67-0.02-176.51
			c0-7.33,1.78-14.8-10.58-14.66c-47.36,0.53-94.73,0.28-142.1,0.01c-7.71-0.04-10.69,2.47-10.38,10.36
			c0.49,12.45-0.01,24.93,0.19,37.39c0.08,5.28-0.15,10.04-6.16,12.03c-9.1-12.83-7.3-57.75,2.87-71.3c2.99,0,5.98,0,8.98,0
			c2.96,3.58,7.09,2.96,10.99,2.96c43.54,0.02,87.08,0.02,130.62,0c3.9,0,8.02,0.62,10.99-2.96c1.99,0,3.99,0,5.98,0
			c7.51,5.28,10.12,12.36,9.89,21.6c-0.54,21.32,0.23,42.67-0.36,63.99c-0.25,9.01,2.35,12.24,11.64,11.91
			c18.33-0.64,36.71-0.13,55.06-0.2c12.62-0.05,19.57,5.47,19.48,18.71c-0.13,18.85-0.04,37.71-0.02,56.56
			c0.01,4.5,0.49,9.15-5.15,10.97c-7.39-1.71-6.59-7.59-6.6-13.02c-0.03-13.89-0.01-27.77-0.01-41.66
			c-0.01-21.48-0.01-21.48-21.25-19.93c-13.88-0.2-27.76-0.24-41.63-0.64c-9.94-0.28-10.8,5.71-10.94,13.58
			c-0.15,8.35,4.02,9.81,11.06,9.69c13.89-0.25,27.78,0.05,41.68,0.13c8.7,11.74,8.67,35.2-0.06,47.63
			c-14.36,0.12-28.73,0.61-43.07,0.21c-7.81-0.22-10.42,2.51-10.27,10.24c0.14,7.44,2.36,10.74,10.3,10.52
			c14.35-0.39,28.72,0.03,43.08,0.12c8.73,11.71,8.7,35.24-0.07,47.61c-14.35,0.13-28.71,0.62-43.04,0.23
			c-7.75-0.21-10.45,2.4-10.27,10.19c0.17,7.43,2.39,10.75,10.31,10.55c14.34-0.37,28.7,0.04,43.05,0.12
			c8.77,11.77,8.73,35.34-0.08,47.6c-14.3,0.14-28.6,0.4-42.89,0.36c-5.97-0.02-10.87,0.21-10.21,8.41
			c0.55,6.76,0.53,12.79,10.22,12.33c14.26-0.69,28.57-0.51,42.86-0.7c21.23,1.33,21.24,1.33,21.24-19.4
			c0-34.31-0.05-68.63,0.05-102.94c0.02-6.17-1.95-13.5,6.92-15.95c5.98,2.65,4.76,8.03,4.77,12.86
			c0.04,18.41,0.28,36.83-0.11,55.23c-0.15,7.05,2.79,10.13,8.11,15.02C358.35,301.17,381.33,306.16,386.73,328.99z M195.22,355.31
			c-55.26,0-110.52,0.04-165.78-0.05c-7.8-0.01-14.33-0.81-14.37,10.98c-0.03,11.94,6.71,10.85,14.4,10.84
			c110.52-0.06,221.04-0.06,331.56,0c7.73,0,14.4,1.02,14.37-10.88c-0.03-11.82-6.64-10.95-14.4-10.94
			C305.74,355.35,250.48,355.31,195.22,355.31z M137.95,313.31c0,4.96,0.58,10.01-0.11,14.87c-1.78,12.57,3.38,16.14,15.69,15.62
			c26.38-1.12,23.07,2.53,23.34-22.97c0.08-7.44-0.8-14.99,0.18-22.3c1.9-14.2-4.2-17.78-17.52-17.14
			c-24.5,1.16-21.28-2.34-21.57,21.51C137.92,306.37,137.95,309.84,137.95,313.31z M64.27,318.97c0-2.47,0.38-5.02-0.08-7.4
			c-1.03-5.34,3.48-13.26-3.9-15.53c-7.29-2.23-13.3,2.66-16.69,9.39c-1.98,3.93-4.75,5.9-8.92,6.84
			c-12.26,2.76-19.75,10.21-17.59,23.12c2.29,13.72,14.1,7.71,21.82,7.91C64.26,343.97,64.27,343.56,64.27,318.97z M339.1,296.53
			c-1.1,0.55-2.19,1.09-3.29,1.64c0,11.24,0.5,22.51-0.16,33.71c-0.53,8.94,2.2,13.05,11.56,11.74c3.39-0.47,6.93,0.12,10.37-0.12
			c5.95-0.42,13.42,2.56,15.63-6.76c2.08-8.79-0.57-17.4-8.13-20.31C354.23,312.27,346.25,305.32,339.1,296.53z M273.69,311.34
			c24.82,0,24.03,0,23.96-16.63c-0.05-12.31-8.83-9.95-14.05-8.38c-11.15,3.35-27.48-10.47-33.4,8.39
			c-3.34,10.64-0.3,19.79,14.62,16.71C267.66,310.84,270.72,311.34,273.69,311.34z M273.62,242.69c3.99,0,8.05-0.51,11.95,0.1
			c10.37,1.61,11.88-3.38,12.18-12.55c0.36-10.64-2.98-14.22-13.39-13c-6.88,0.81-13.98,0.66-20.9,0.03
			c-9.71-0.88-14.1,1.43-14.05,12.7c0.05,10.9,3.73,14.16,13.75,12.8C266.59,242.3,270.13,242.69,273.62,242.69z M274.36,173.86
			c4.97,0,9.97-0.35,14.91,0.09c6.81,0.6,7.82-2.67,8.35-8.71c1.04-11.98-1.16-19.19-15.56-16.61c-5.78,1.04-11.95,0.68-17.85,0.06
			c-10.21-1.07-14.93,1.09-14.88,13.29c0.05,12.21,5.8,12.68,14.6,11.94C267.38,173.63,270.88,173.87,274.36,173.86z"/>
		<path class="st1" d="M18.7,388.83c4.45-4.73,10.27-2.89,15.51-2.9c107.34-0.1,214.69-0.1,322.03,0c5.25,0,11.06-1.83,15.51,2.9
			C254.08,388.83,136.39,388.83,18.7,388.83z"/>
		<path class="st1" d="M234.13,5.85c-2.96,3.58-7.09,2.96-10.99,2.96c-43.54,0.02-87.08,0.02-130.62,0c-3.9,0-8.02,0.62-10.99-2.96
			C132.4,5.85,183.27,5.85,234.13,5.85z"/>
		<path class="st2" d="M69.45,91.58c0.08-4.81,0.16-9.62,0.24-14.44c6.02-1.99,6.25-6.75,6.16-12.03
			c-0.2-12.46,0.31-24.94-0.19-37.39c-0.31-7.88,2.67-10.4,10.38-10.36c47.37,0.27,94.74,0.52,142.1-0.01
			c12.35-0.14,10.57,7.33,10.58,14.66c0.02,58.84,0.02,117.67,0.02,176.51c0,40.89-0.27,81.77,0.2,122.66
			c0.11,9.72-2.61,12.52-12.55,12.52c-38.28,0.02-38.18,0.42-38.3-37.35c-0.14-40.94,4.13-35.16-36.11-35.61
			c-4.49-0.05-8.98,0.08-13.46,0.01c-8.74-0.15-12.55,3.91-12.37,12.8c0.33,16.45-0.37,32.92,0.28,49.35
			c0.34,8.66-2.61,10.67-10.97,10.83c-39.66,0.74-39.66,1.01-39.66-38.83c0-65.82,0.08-131.63-0.14-197.45
			C75.63,101.77,79.21,93.82,69.45,91.58z M126.72,111.26c3.05-15.71-5.49-18.19-18.75-18.33c-13.95-0.15-17.53,5.49-17.84,18.66
			c-0.34,14.54,4.91,19.07,18.95,19.1C123.53,130.72,129.53,125.52,126.72,111.26z M138.93,112.19
			c-3.42,14.89,4.75,18.27,18.24,18.43c13.19,0.16,18.62-3.96,18.37-18c-0.24-13.25-2.77-20.21-18.07-19.73
			C143.95,93.3,135.97,96.35,138.93,112.19z M223.11,113.13c2.04-13.22-1.44-20.61-17.04-20.24c-13.29,0.31-20.36,3-19.88,18.28
			c0.39,12.46,2.55,19.9,17.17,19.41C215.55,130.16,226.11,129.77,223.11,113.13z M126.65,230.39c2.92-14.24-2.88-19.3-17.52-18.9
			c-12.5,0.34-19.33,2.26-18.93,17.06c0.35,12.94,2.12,20.51,17.75,20.08C121.12,248.25,129.76,246.24,126.65,230.39z
			 M126.66,171.63c2.58-13.85-2.2-19.7-17.27-19.54c-13.94,0.15-19.54,3.88-19.2,18.6c0.29,12.88,3.13,19.11,17.5,18.6
			C120.3,188.84,130.01,187.93,126.66,171.63z M174.79,230.41c2.14-12.99-1.72-19.47-16.39-18.89c-12.4,0.49-20.8,1.12-20.24,17.3
			c0.46,13.23,2.84,20.11,18.11,19.81C169.79,248.37,177.76,245.62,174.79,230.41z M204.2,212.36c-15.97-4.06-17.56,5.44-17.9,18.39
			c-0.36,13.92,5.34,17.6,18.52,17.9c14.46,0.33,18.91-4.73,18.89-18.85C223.69,215.5,219.18,209.12,204.2,212.36z M174.74,170.94
			c2.9-14.86-3.88-18.97-18.03-18.81c-13.2,0.15-18.5,3.89-18.52,17.8c-0.01,13.64,3.35,19.75,18.28,19.41
			C170,189.04,177.93,186.23,174.74,170.94z M205.6,188.61c15.75,3.19,17.86-5.59,18.07-18.7c0.22-13.8-4.94-17.69-18.32-17.81
			c-14.24-0.12-19.19,4.41-19.15,18.8C186.24,185.41,191.28,191.3,205.6,188.61z M204.81,35.06c-15.46-2.98-18.51,4.95-18.56,18.5
			c-0.05,13.77,5.21,17.91,18.48,18.14c14.21,0.24,19.07-4.6,19-18.88C223.65,38.62,219.34,32.05,204.81,35.06z M157.34,35.06
			c-14.56-2.76-19.14,3.49-19.17,17.82c-0.03,14.5,5.32,18.84,19.25,18.82c13.57-0.01,18.21-4.62,18.02-18.21
			C175.27,40.23,172.89,31.78,157.34,35.06z M126.57,51.99c3.88-15.58-5.23-17.37-18.32-17.61c-13.51-0.25-18.06,4.3-18.08,17.97
			c-0.02,14,4.17,19.42,18.66,19.36C123.06,71.65,129.44,67.03,126.57,51.99z"/>
		<path class="st3" d="M195.22,355.31c55.26,0,110.52,0.04,165.78-0.05c7.76-0.01,14.37-0.88,14.4,10.94
			c0.03,11.9-6.64,10.89-14.37,10.88c-110.52-0.07-221.04-0.06-331.56,0c-7.69,0-14.43,1.1-14.4-10.84
			c0.03-11.78,6.56-10.99,14.37-10.98C84.7,355.36,139.96,355.31,195.22,355.31z"/>
		<path class="st4" d="M330.67,189.4c0.12,5.09,0.24,10.17,0.36,15.26c-8.87,2.45-6.9,9.78-6.92,15.95
			c-0.11,34.31-0.05,68.63-0.05,102.94c0,20.72-0.01,20.72-21.24,19.4c0.01-6.8,0.02-13.59,0.02-20.39
			c8.81-12.27,8.85-35.83,0.08-47.6c-0.01-7.03-0.03-14.05-0.04-21.08c8.77-12.37,8.8-35.9,0.07-47.61
			c-0.01-7.03-0.03-14.06-0.04-21.09c8.73-12.43,8.76-35.89,0.06-47.63c-0.05-7.58-0.11-15.17-0.16-22.75
			c21.24-1.55,21.24-1.55,21.25,19.93c0.01,13.89-0.01,27.77,0.01,41.66C324.08,181.81,323.28,187.7,330.67,189.4z"/>
		<path class="st4" d="M137.95,313.31c0-3.47-0.04-6.95,0.01-10.42c0.29-23.85-2.93-20.35,21.57-21.51
			c13.32-0.63,19.42,2.94,17.52,17.14c-0.98,7.31-0.1,14.86-0.18,22.3c-0.28,25.5,3.04,21.84-23.34,22.97
			c-12.3,0.52-17.47-3.04-15.69-15.62C138.53,323.32,137.95,318.27,137.95,313.31z"/>
		<path class="st5" d="M64.27,318.97c0,24.59-0.01,25.01-25.36,24.33c-7.72-0.2-19.53,5.81-21.82-7.91
			c-2.16-12.91,5.34-20.36,17.59-23.12c4.17-0.94,6.94-2.91,8.92-6.84c3.39-6.73,9.4-11.62,16.69-9.39
			c7.39,2.26,2.88,10.18,3.9,15.53C64.65,313.95,64.27,316.49,64.27,318.97z"/>
		<path class="st5" d="M339.1,296.53c7.15,8.78,15.14,15.73,25.98,19.9c7.56,2.9,10.22,11.51,8.13,20.31
			c-2.21,9.33-9.68,6.34-15.63,6.76c-3.44,0.24-6.97-0.36-10.37,0.12c-9.36,1.31-12.09-2.8-11.56-11.74
			c0.66-11.2,0.16-22.47,0.16-33.71C336.91,297.63,338,297.08,339.1,296.53z"/>
		<path class="st6" d="M302.8,114.79c0.05,7.58,0.11,15.17,0.16,22.75c-13.89-0.07-27.79-0.37-41.68-0.13
			c-7.04,0.13-11.21-1.33-11.06-9.69c0.14-7.87,1-13.86,10.94-13.58C275.04,114.55,288.92,114.6,302.8,114.79z"/>
		<path class="st7" d="M273.69,311.34c-2.96,0-6.03-0.5-8.87,0.08c-14.92,3.08-17.96-6.06-14.62-16.71
			c5.92-18.86,22.25-5.04,33.4-8.39c5.22-1.57,14-3.93,14.05,8.38C297.71,311.35,298.51,311.34,273.69,311.34z"/>
		<path class="st7" d="M273.62,242.69c-3.49,0-7.03-0.39-10.46,0.07c-10.02,1.36-13.7-1.91-13.75-12.8
			c-0.05-11.26,4.34-13.57,14.05-12.7c6.92,0.62,14.02,0.77,20.9-0.03c10.41-1.22,13.74,2.36,13.39,13
			c-0.31,9.17-1.82,14.16-12.18,12.55C281.67,242.18,277.6,242.69,273.62,242.69z"/>
		<path class="st7" d="M274.36,173.87c-3.48,0-6.98-0.24-10.44,0.05c-8.8,0.74-14.55,0.27-14.6-11.94
			c-0.05-12.2,4.66-14.36,14.88-13.29c5.9,0.62,12.07,0.98,17.85-0.06c14.4-2.58,16.6,4.63,15.56,16.61
			c-0.53,6.03-1.53,9.31-8.35,8.71C284.34,173.51,279.33,173.86,274.36,173.87z"/>
		<path class="st6" d="M302.87,253.88c0.01,7.03,0.03,14.05,0.04,21.08c-14.35-0.08-28.71-0.49-43.05-0.12
			c-7.92,0.2-10.14-3.12-10.31-10.55c-0.18-7.79,2.52-10.4,10.27-10.19C274.16,254.5,288.52,254,302.87,253.88z"/>
		<path class="st6" d="M302.9,185.18c0.01,7.03,0.03,14.06,0.04,21.09c-14.36-0.08-28.73-0.5-43.08-0.12
			c-7.94,0.21-10.16-3.08-10.3-10.52c-0.15-7.74,2.46-10.46,10.27-10.24C274.17,185.79,288.54,185.3,302.9,185.18z"/>
		<path class="st6" d="M302.83,322.56c-0.01,6.8-0.02,13.59-0.02,20.39c-14.29,0.19-28.59,0.01-42.86,0.7
			c-9.69,0.47-9.67-5.56-10.22-12.33c-0.66-8.2,4.24-8.43,10.21-8.41C274.24,322.96,288.54,322.7,302.83,322.56z"/>
		<path class="st1" d="M126.72,111.26c2.81,14.25-3.19,19.45-17.64,19.43c-14.04-0.03-19.29-4.55-18.95-19.1
			c0.31-13.17,3.89-18.81,17.84-18.66C121.23,93.07,129.77,95.55,126.72,111.26z M116.12,111.9c0.44-4.71-1.06-7.46-6.53-7.36
			c-4.45,0.09-7.75,0.36-7.57,6.2c0.15,4.98,0.44,8.75,7.07,8.46C114.21,118.97,116.35,116.88,116.12,111.9z"/>
		<path class="st1" d="M138.93,112.19c-2.96-15.83,5.02-18.89,18.54-19.3c15.3-0.47,17.83,6.49,18.07,19.73
			c0.25,14.04-5.18,18.16-18.37,18C143.68,130.45,135.51,127.08,138.93,112.19z M156.47,104.7c-5.55-0.88-6.34,2.33-6.45,6.89
			c-0.13,5.54,1.77,7.87,7.59,7.59c5.15-0.25,6.56-2.71,6.8-7.32C164.73,105.9,161.87,104.02,156.47,104.7z"/>
		<path class="st1" d="M223.11,113.13c2.99,16.64-7.56,17.03-19.75,17.44c-14.62,0.5-16.78-6.95-17.17-19.41
			c-0.47-15.28,6.6-17.97,19.88-18.28C221.68,92.52,225.16,99.91,223.11,113.13z M212.41,112.05c0.83-5.79-2.09-7.49-7.62-7.54
			c-5.13-0.05-7.05,1.79-6.75,6.84c0.24,4.09,0,7.88,5.92,7.8C208.92,119.07,212.94,118.55,212.41,112.05z"/>
		<path class="st0" d="M126.65,230.39c3.11,15.85-5.53,17.86-18.71,18.23c-15.63,0.44-17.4-7.13-17.75-20.08
			c-0.4-14.8,6.44-16.72,18.93-17.06C123.77,211.09,129.57,216.15,126.65,230.39z M108.98,222.78c-4.81-0.55-7.08,1.48-7.02,6.62
			c0.05,4.37,0.37,7.57,6.13,7.43c5.13-0.12,8.5-0.93,8.23-7.19C116.11,224.62,113.95,222.47,108.98,222.78z"/>
		<path class="st0" d="M126.66,171.63c3.35,16.3-6.36,17.21-18.97,17.66c-14.37,0.51-17.2-5.72-17.5-18.6
			c-0.34-14.72,5.26-18.46,19.2-18.6C124.46,151.93,129.24,157.78,126.66,171.63z M108.36,177.88c4.63,0.27,7.65-0.89,7.94-6.26
			c0.31-5.73-1.92-7.8-7.62-7.81c-5.16-0.01-6.9,1.86-6.73,6.88C102.1,175.28,103.03,178.48,108.36,177.88z"/>
		<path class="st0" d="M174.79,230.41c2.97,15.21-5,17.96-18.52,18.23c-15.27,0.3-17.65-6.58-18.11-19.81
			c-0.56-16.18,7.84-16.8,20.24-17.3C173.06,210.94,176.93,217.42,174.79,230.41z M164.36,229.46c0.39-5.56-2.95-6.51-7.47-6.79
			c-6.64-0.42-6.8,3.58-6.9,8.49c-0.13,6.28,4.01,5.45,7.96,5.58C163.25,236.91,164.94,234.16,164.36,229.46z"/>
		<path class="st0" d="M204.2,212.36c14.98-3.24,19.49,3.14,19.52,17.44c0.02,14.12-4.43,19.18-18.89,18.85
			c-13.19-0.3-18.88-3.98-18.52-17.9C186.64,217.8,188.23,208.3,204.2,212.36z M212.23,229.89c0.55-5.23-2.25-6.62-6.9-6.92
			c-6.02-0.39-7.21,2.44-7.25,7.78c-0.05,5.89,3.31,5.81,7.46,5.84C210.28,236.61,212.98,235.02,212.23,229.89z"/>
		<path class="st0" d="M174.74,170.94c3.2,15.28-4.73,18.1-18.26,18.4c-14.93,0.34-18.3-5.77-18.28-19.41
			c0.02-13.91,5.32-17.65,18.52-17.8C170.85,151.97,177.63,156.08,174.74,170.94z M164.36,170.1c0.48-5.87-3.42-5.95-7.66-6.23
			c-5.25-0.35-6.7,1.89-6.78,6.89c-0.1,6.2,2.84,7.5,8.21,7.2C163.5,177.64,164.75,174.62,164.36,170.1z"/>
		<path class="st0" d="M205.6,188.61c-14.32,2.69-19.36-3.2-19.4-17.71c-0.04-14.39,4.91-18.92,19.15-18.8
			c13.38,0.11,18.54,4,18.32,17.81C223.46,183.02,221.35,191.8,205.6,188.61z M212.23,170.1c0.49-6.3-3.87-5.68-7.91-6.03
			c-5.92-0.51-6.08,2.96-6.2,7.41c-0.15,5.9,3.26,6.2,7.69,6.15C211.17,177.58,212.78,174.78,212.23,170.1z"/>
		<path class="st0" d="M204.81,35.06c14.53-3.01,18.84,3.56,18.92,17.76c0.08,14.28-4.78,19.12-19,18.88
			c-13.27-0.22-18.53-4.37-18.48-18.14C186.29,40.02,189.35,32.08,204.81,35.06z M204.34,59.73c5.16,0.55,8.64-0.56,8.28-6.96
			c-0.26-4.65-1.49-7.27-6.74-7.51c-5.64-0.26-8.09,1.6-7.93,7.47C198.08,57.3,198.65,60.65,204.34,59.73z"/>
		<path class="st0" d="M157.34,35.06c15.54-3.29,17.92,5.16,18.11,18.44c0.19,13.58-4.45,18.19-18.02,18.21
			c-13.94,0.02-19.29-4.32-19.25-18.82C138.21,38.56,142.79,32.31,157.34,35.06z M156.77,45.4c-6.68-0.88-6.53,3.6-6.79,8.31
			c-0.32,5.73,2.91,6.17,7.32,6.15c4.66-0.02,7.29-1.25,7.2-6.63C164.42,47.82,162.71,44.76,156.77,45.4z"/>
		<path class="st0" d="M126.57,51.99c2.88,15.04-3.51,19.66-17.73,19.72c-14.49,0.06-18.68-5.36-18.66-19.36
			c0.02-13.67,4.57-18.22,18.08-17.97C121.34,34.63,130.44,36.42,126.57,51.99z M109.31,59.75c4.91,0.49,7.07-1.51,7.02-6.64
			c-0.06-5.42-1.92-7.82-7.69-7.89c-6.71-0.09-6.41,4.02-6.66,8.61C101.67,59.55,104.98,60.17,109.31,59.75z"/>
		<path class="st8" d="M116.12,111.9c0.24,4.98-1.91,7.07-7.03,7.29c-6.64,0.29-6.92-3.48-7.07-8.46c-0.18-5.83,3.13-6.11,7.57-6.2
			C115.06,104.44,116.56,107.2,116.12,111.9z"/>
		<path class="st8" d="M156.47,104.7c5.4-0.68,8.26,1.21,7.94,7.17c-0.25,4.6-1.65,7.07-6.8,7.32c-5.83,0.28-7.73-2.06-7.59-7.59
			C150.12,107.03,150.91,103.82,156.47,104.7z"/>
		<path class="st8" d="M212.41,112.05c0.53,6.5-3.49,7.02-8.45,7.09c-5.92,0.08-5.68-3.71-5.92-7.8c-0.3-5.04,1.62-6.88,6.75-6.84
			C210.32,104.55,213.23,106.26,212.41,112.05z"/>
		<path class="st8" d="M108.98,222.78c4.97-0.31,7.13,1.84,7.34,6.85c0.27,6.27-3.1,7.07-8.23,7.19c-5.76,0.13-6.08-3.06-6.13-7.43
			C101.9,224.26,104.17,222.23,108.98,222.78z"/>
		<path class="st8" d="M108.36,177.88c-5.33,0.6-6.26-2.6-6.41-7.19c-0.17-5.02,1.57-6.9,6.73-6.88c5.7,0.01,7.92,2.08,7.62,7.81
			C116.01,176.99,112.99,178.15,108.36,177.88z"/>
		<path class="st8" d="M164.36,229.46c0.58,4.7-1.11,7.45-6.41,7.28c-3.95-0.13-8.09,0.7-7.96-5.58c0.1-4.9,0.26-8.91,6.9-8.49
			C161.4,222.95,164.75,223.9,164.36,229.46z"/>
		<path class="st7" d="M212.23,229.89c0.75,5.13-1.95,6.73-6.7,6.69c-4.14-0.03-7.5,0.05-7.46-5.84c0.04-5.35,1.23-8.17,7.25-7.78
			C209.98,223.26,212.78,224.66,212.23,229.89z"/>
		<path class="st8" d="M164.36,170.1c0.39,4.53-0.86,7.55-6.23,7.85c-5.37,0.31-8.31-1-8.21-7.2c0.08-5,1.53-7.24,6.78-6.89
			C160.94,164.15,164.84,164.22,164.36,170.1z"/>
		<path class="st7" d="M212.23,170.1c0.54,4.68-1.06,7.48-6.42,7.53c-4.43,0.04-7.84-0.25-7.69-6.15c0.12-4.45,0.28-7.92,6.2-7.41
			C208.36,164.42,212.73,163.81,212.23,170.1z"/>
		<path class="st8" d="M204.34,59.73c-5.69,0.92-6.27-2.44-6.39-7.01c-0.16-5.87,2.29-7.73,7.93-7.47c5.25,0.24,6.48,2.87,6.74,7.51
			C212.98,59.18,209.51,60.28,204.34,59.73z"/>
		<path class="st8" d="M156.77,45.4c5.93-0.64,7.65,2.42,7.73,7.84c0.09,5.38-2.54,6.61-7.2,6.63c-4.41,0.02-7.64-0.42-7.32-6.15
			C150.25,49,150.09,44.52,156.77,45.4z"/>
		<path class="st8" d="M109.31,59.75c-4.34,0.42-7.64-0.2-7.33-5.92c0.25-4.59-0.05-8.7,6.66-8.61c5.77,0.07,7.63,2.47,7.69,7.89
			C116.38,58.24,114.23,60.24,109.31,59.75z"/>
	</g>
</g>
</svg>
