<?xml version="1.0" encoding="utf-8"?>
<!-- Generator: Adobe Illustrator 28.0.0, SVG Export Plug-In . SVG Version: 6.00 Build 0)  -->
<svg version="1.1" id="Calque_1" xmlns="http://www.w3.org/2000/svg" xmlns:xlink="http://www.w3.org/1999/xlink" x="0px" y="0px"
	 viewBox="0 0 368.32 387.07" style="enable-background:new 0 0 368.32 387.07;" xml:space="preserve">
<style type="text/css">
	.st0{fill:#0F0F0E;}
	.st1{fill:#FCF0DC;}
	.st2{fill:#CDCDCD;}
	.st3{fill:#FDE3C1;}
	.st4{fill:#ABABAB;}
	.st5{fill:#9B9B9B;}
	.st6{fill:#BFBFBF;}
	.st7{fill:#171511;}
	.st8{fill:#11110F;}
	.st9{fill:#1A1917;}
	.st10{fill:#12110F;}
	.st11{fill:#1E1C1A;}
	.st12{fill:#171614;}
	.st13{fill:#020201;}
	.st14{fill:#181715;}
	.st15{fill:#090808;}
	.st16{fill:#1F1D1B;}
	.st17{fill:#090908;}
	.st18{fill:#0A0909;}
	.st19{fill:#F6E279;}
	.st20{fill:#EEBC00;}
	.st21{fill:#F3DF78;}
	.st22{fill:#F4DD62;}
</style>
<g>
	<g>
		<path class="st0" d="M359.41,383.38c-116.84,0-233.68,0-350.52,0c-3.02-4.91-6.19-9.31-6.17-15.89
			C2.97,251.45,2.94,135.41,2.84,19.37C2.83,8.09,7.94,3.34,19.1,3.44c27.19,0.25,54.38,0.17,81.57,0
			c5.33-0.03,9.86,0.48,12.01,6.15c-3.31,5.59-8.65,5.65-14.27,5.53c-8.9-0.2-17.84,0.44-26.7-0.19
			c-7.99-0.58-10.26,2.44-9.91,10.09c0.31,6.9-0.26,11.89,9.7,11.83c91.01-0.57,182.02-0.63,273.04-0.84
			c8.93,2.59,9.63-2.67,9.31-9.43c-0.29-6.23,1.5-13.8-9.31-10.89c-5.41-0.21-10.83-0.6-16.24-0.6
			c-61.73-0.04-123.46,0.03-185.19-0.11c-6-0.01-13.32,2.53-16.64-5.74c1.75-6.53,7.01-5.72,11.92-5.72
			c70.09,0.01,140.18,0.12,210.26-0.1c12-0.04,16.89,5.07,16.84,16.88c-0.2,54.23-0.1,108.46-0.07,162.69
			c0,4.97,0.56,10.1-5.79,11.96c-7.57-2.91-5.75-9.52-5.76-15.19c-0.08-40.02-0.06-80.04-0.03-120.06c0-6.37,1.52-13.86-9.32-11.04
			C237.68,48.5,130.84,48.48,24,47.95c-9.91-0.05-9.62,4.62-9.61,11.63c0.13,100.31,0.28,200.61-0.19,300.92
			c-0.05,10.67,4.04,11.65,12.81,11.6c62.82-0.3,125.65-0.08,188.48-0.19c43.02-0.07,86.04-0.39,129.06-0.61
			c11.01,3.02,9.27-4.75,9.27-10.97c0.01-45.31,0.02-90.62-0.01-135.93c0-5.88-0.99-12.04,5.57-15.55c7.47,2.81,6.01,9.21,6.02,15
			c0.01,46.9-0.17,93.8,0.19,140.7C365.65,371.92,363.54,377.78,359.41,383.38z M41.54,35.98c8.99,2.52,9.16-3.14,8.83-9.41
			c-0.3-5.82,1.95-13.59-8.83-10.84c-4.37-0.21-8.73-0.6-13.1-0.58c-6.92,0.02-14.2-2.39-14.35,9.97
			C13.95,37.25,20,37.31,28.44,36.63C32.79,36.28,37.17,36.19,41.54,35.98z"/>
		<path class="st1" d="M344.54,371.31c-43.02,0.21-86.04,0.53-129.06,0.61c-62.83,0.1-125.65-0.11-188.48,0.19
			c-8.77,0.04-12.86-0.93-12.81-11.6c0.46-100.3,0.32-200.61,0.19-300.92c-0.01-7.01-0.3-11.68,9.61-11.63
			c106.84,0.53,213.68,0.54,320.53,0.7C344.53,156.2,344.54,263.76,344.54,371.31z M132.98,206.16c-25.22,0-50.45,0.41-75.66-0.19
			c-10.79-0.26-14.96,3.07-14.78,14.29c0.54,34.57,0.54,69.15,0,103.72c-0.18,11.22,4.02,14.39,14.79,14.3
			c49.94-0.43,99.89-0.41,149.84-0.01c10.7,0.09,15.04-3.04,14.86-14.3c-0.54-34.57-0.55-69.15,0-103.72
			c0.18-11.31-4.19-14.5-14.88-14.26C182.44,206.54,157.71,206.16,132.98,206.16z M181.6,116.44c41.07,0,82.14,0.08,123.21-0.1
			c4.87-0.02,12.83,2.41,12.52-5.85c-0.29-7.77-8.07-5.51-13.05-5.51c-82.63-0.12-165.26-0.11-247.9-0.01
			c-5,0.01-12.77-2.13-12.46,6.09c0.31,8.18,8.18,5.24,12.99,5.26C98.47,116.53,140.04,116.44,181.6,116.44z M283.29,269.86
			c10.86,0,21.73,0.04,32.59-0.02c4.13-0.02,8.4-0.65,8.74-5.8c0.39-5.8-4.2-5.65-8.22-5.65c-22.22-0.02-44.44-0.04-66.66,0.01
			c-3.92,0.01-8.66-0.33-8.87,5.21c-0.21,5.36,4.35,6.07,8.35,6.14C260.58,269.95,271.94,269.83,283.29,269.86z M282.88,315.23
			c11.35,0,22.7-0.05,34.05,0.03c3.72,0.02,7.41-0.51,7.7-4.85c0.33-5.02-3.35-6.68-7.81-6.68c-22.7-0.01-45.4-0.03-68.1,0.06
			c-4.29,0.02-8.29,1.5-7.8,6.63c0.41,4.24,4.23,4.81,7.91,4.8C260.18,315.2,271.53,315.21,282.88,315.23z M282.21,338.1
			c0-0.02,0-0.04,0-0.07c11.85,0,23.7,0.1,35.55-0.06c3.76-0.05,6.93-1.75,6.93-6.05c0-4.63-3.45-5.29-7.2-5.29
			c-22.71,0.01-45.43-0.03-68.14,0.02c-3.97,0.01-8.63,0.02-8.46,5.63c0.16,5.29,4.77,5.7,8.72,5.76
			C260.48,338.21,271.35,338.1,282.21,338.1z M83.68,127.66c-10.83,0-21.67,0-32.5,0c-3.63,0-7.27,0.41-7.63,4.92
			c-0.35,4.31,2.78,6.31,6.55,6.33c22.16,0.14,44.32,0.12,66.47-0.01c3.68-0.02,7.16-1.67,7.01-5.93c-0.15-4.28-3.65-5.28-7.39-5.28
			C105.34,127.69,94.51,127.69,83.68,127.66z M77.13,183.92c8.34,0,16.68,0.13,25.01-0.06c3.66-0.08,7.12-1.65,7.06-5.84
			c-0.06-4.18-3.39-5.48-7.18-5.48c-17.17-0.01-34.33,0.01-51.5-0.03c-3.88-0.01-7.01,1.09-6.89,5.54c0.11,4.23,3.24,5.82,7.02,5.87
			C59.48,184.04,68.31,183.96,77.13,183.92z M70.18,93.48c6.86,0,13.73,0.09,20.59-0.04c3.3-0.06,6.09-1.94,6.06-5.16
			c-0.03-3.13-2.69-5.15-6.05-5.17c-13.72-0.07-27.45-0.1-41.17-0.01c-3.28,0.02-5.89,1.7-5.93,5.18c-0.04,3.56,2.72,5.09,5.92,5.17
			C56.46,93.62,63.32,93.51,70.18,93.48z M60.77,161.11c3.98-1.84,14.04,4.38,13.83-5.59c-0.19-9.18-9.84-4.83-15.49-5.65
			c-3.33-0.49-6.86-0.27-10.22,0.2c-3.1,0.44-5.47,2.42-5.31,5.89c0.16,3.42,2.33,5.12,5.75,5.15
			C52.75,161.13,56.17,161.11,60.77,161.11z M256.75,281.94c-4.57,1.61-14.84-3.61-15.22,4.52c-0.49,10.41,10.33,4.87,16.21,6.24
			c2.33,0.54,4.9,0.17,7.35,0c4-0.28,8.42-0.53,7.97-6.17c-0.38-4.79-4.55-4.32-7.88-4.56
			C262.73,281.79,260.26,281.94,256.75,281.94z M156.03,132.66c-1.32-5.75-6.08-4.97-10.36-4.99c-4.07-0.01-8.7,0.45-8.27,5.71
			c0.47,5.83,5.77,5.67,10.16,5.64C151.7,138.99,155.4,138,156.03,132.66z M294.32,281.86c-3.5,0.65-8.69-1.12-9.1,4.7
			c-0.48,6.8,5.15,6.06,9.34,6.08c3.76,0.02,8.51,0.25,8.46-5.53C302.96,281.11,298.04,282.38,294.32,281.86z M118.71,82.77
			c-2.87,1.24-8.83-1.66-9.15,5.49c-0.22,4.87,3.59,5.41,7.06,5.28c4.07-0.15,9.68,1.69,10.74-4.57
			C128.35,83.13,123.38,83.42,118.71,82.77z"/>
		<path class="st2" d="M112.68,9.59c4.59-0.12,9.19-0.24,13.78-0.35c3.32,8.27,10.64,5.73,16.64,5.74
			c61.73,0.14,123.46,0.07,185.19,0.11c5.41,0,10.83,0.39,16.24,0.6c0,6.77,0,13.54,0,20.31c-91.01,0.21-182.03,0.27-273.04,0.84
			c-9.96,0.06-9.39-4.93-9.7-11.83c-0.35-7.65,1.92-10.67,9.91-10.09c8.86,0.64,17.8,0,26.7,0.19
			C104.03,15.25,109.37,15.18,112.68,9.59z"/>
		<path class="st3" d="M344.54,371.31c-0.01-107.55-0.01-215.11-0.02-322.66c10.84-2.82,9.32,4.67,9.32,11.04
			c-0.03,40.02-0.05,80.04,0.03,120.06c0.01,5.68-1.81,12.28,5.76,15.19c-0.08,4.64-0.17,9.28-0.25,13.92
			c-6.56,3.5-5.57,9.67-5.57,15.55c0.02,45.31,0.02,90.62,0.01,135.93C353.82,366.56,355.55,374.33,344.54,371.31z"/>
		<path class="st4" d="M41.54,35.98c-4.37,0.21-8.74,0.3-13.1,0.65C20,37.31,13.95,37.25,14.09,25.12
			c0.15-12.36,7.43-9.95,14.35-9.97c4.37-0.01,8.73,0.37,13.1,0.58C41.54,22.48,41.54,29.23,41.54,35.98z"/>
		<path class="st5" d="M41.54,35.98c0-6.75,0-13.5,0-20.25c10.79-2.76,8.53,5.01,8.83,10.84C50.7,32.84,50.53,38.5,41.54,35.98z"/>
		<path class="st6" d="M344.54,36.01c0-6.77,0-13.54,0-20.31c10.81-2.92,9.02,4.65,9.31,10.89
			C354.17,33.34,353.47,38.6,344.54,36.01z"/>
		<path class="st7" d="M132.98,206.16c24.73,0,49.46,0.38,74.17-0.18c10.69-0.24,15.06,2.95,14.88,14.26
			c-0.55,34.57-0.55,69.15,0,103.72c0.18,11.27-4.15,14.39-14.86,14.3c-49.94-0.4-99.89-0.42-149.84,0.01
			c-10.77,0.09-14.97-3.07-14.79-14.3c0.54-34.57,0.54-69.15,0-103.72c-0.18-11.22,3.99-14.54,14.78-14.29
			C82.53,206.56,107.76,206.16,132.98,206.16z M201.14,326.08c-18.72-17.8-34.67-33.86-51.66-48.74c-9.4-8.23-24.82-6.51-31.61-1.57
			c-19.07,13.88-35.09,31.95-54.34,50.3C110.45,326.08,153.97,326.08,201.14,326.08z M67.32,218.19
			c13.05,9.5,23.54,17.2,34.09,24.81c30.64,22.08,30.76,22.22,61.1,0.2c10.64-7.72,22.51-14.1,32.17-25
			C152.13,218.19,111.45,218.19,67.32,218.19z M54.56,318.62c18.76-17.72,35.46-33.51,52.18-49.3c2.74-2.58,4.94-5.03,0.51-8.19
			c-16.95-12.09-33.83-24.26-52.7-37.81C54.56,256.19,54.56,285.59,54.56,318.62z M209.53,318.04c0-32.68,0-62.3,0-94.13
			c-18.31,13.04-34.94,25.07-51.78,36.8c-5.37,3.74-2.53,6.23,0.53,9.1C174.73,285.28,191.18,300.77,209.53,318.04z"/>
		<path class="st8" d="M181.6,116.44c-41.56,0-83.13,0.09-124.69-0.12c-4.81-0.02-12.68,2.92-12.99-5.26
			c-0.31-8.22,7.46-6.09,12.46-6.09c82.63-0.1,165.26-0.11,247.9,0.01c4.98,0.01,12.77-2.26,13.05,5.51
			c0.31,8.26-7.65,5.83-12.52,5.85C263.74,116.52,222.67,116.44,181.6,116.44z"/>
		<path class="st9" d="M283.29,269.84c-11.36-0.02-22.72,0.11-34.07-0.08c-3.99-0.07-8.55-0.78-8.35-6.14
			c0.21-5.55,4.96-5.21,8.87-5.21c22.22-0.05,44.44-0.03,66.66-0.01c4.01,0,8.6-0.15,8.22,5.65c-0.34,5.15-4.61,5.77-8.74,5.8
			C305.02,269.9,294.16,269.86,283.29,269.84z"/>
		<path class="st10" d="M282.88,315.22c-11.35-0.01-22.7-0.02-34.05,0c-3.68,0.01-7.5-0.56-7.91-4.8c-0.5-5.13,3.51-6.62,7.8-6.63
			c22.7-0.09,45.4-0.08,68.1-0.06c4.46,0,8.15,1.66,7.81,6.68c-0.29,4.34-3.98,4.87-7.7,4.85
			C305.58,315.18,294.23,315.23,282.88,315.22z"/>
		<path class="st9" d="M282.21,338.1c-10.86,0-21.73,0.11-32.59-0.06c-3.96-0.06-8.56-0.47-8.72-5.76
			c-0.17-5.61,4.48-5.62,8.46-5.63c22.71-0.05,45.43-0.01,68.14-0.02c3.74,0,7.2,0.67,7.2,5.29c0,4.3-3.17,6-6.93,6.05
			c-11.85,0.15-23.7,0.06-35.55,0.06C282.21,338.06,282.21,338.08,282.21,338.1z"/>
		<path class="st11" d="M83.68,127.68c10.83,0.01,21.67,0.01,32.5,0.01c3.75,0,7.25,1,7.39,5.28c0.15,4.26-3.33,5.91-7.01,5.93
			c-22.16,0.13-44.32,0.15-66.47,0.01c-3.76-0.02-6.89-2.02-6.55-6.33c0.36-4.51,4.01-4.92,7.63-4.92
			C62.01,127.67,72.84,127.66,83.68,127.68z"/>
		<path class="st12" d="M77.13,183.94c-8.83,0.02-17.66,0.1-26.48-0.02c-3.79-0.05-6.91-1.64-7.02-5.87
			c-0.12-4.45,3.01-5.55,6.89-5.54c17.17,0.04,34.33,0.02,51.5,0.03c3.8,0,7.13,1.3,7.18,5.48c0.06,4.19-3.4,5.75-7.06,5.84
			C93.81,184.05,85.47,183.92,77.13,183.94z"/>
		<path class="st13" d="M70.18,93.49c-6.86,0.01-13.73,0.13-20.59-0.04c-3.19-0.08-5.96-1.61-5.92-5.17
			c0.04-3.48,2.65-5.16,5.93-5.18c13.72-0.08,27.45-0.06,41.17,0.01c3.36,0.02,6.01,2.04,6.05,5.17c0.03,3.22-2.76,5.1-6.06,5.16
			C83.91,93.57,77.05,93.48,70.18,93.49z"/>
		<path class="st14" d="M60.77,161.11c-4.6,0-8.02,0.02-11.44,0c-3.42-0.02-5.6-1.73-5.75-5.15c-0.16-3.47,2.21-5.45,5.31-5.89
			c3.36-0.48,6.89-0.69,10.22-0.2c5.65,0.82,15.3-3.53,15.49,5.65C74.8,165.49,64.75,159.27,60.77,161.11z"/>
		<path class="st15" d="M256.75,281.94c3.52,0,5.99-0.14,8.43,0.03c3.33,0.24,7.5-0.23,7.88,4.56c0.45,5.64-3.98,5.89-7.97,6.17
			c-2.45,0.17-5.02,0.54-7.35,0c-5.88-1.37-16.7,4.17-16.21-6.24C241.91,278.32,252.18,283.54,256.75,281.94z"/>
		<path class="st16" d="M156.03,132.66c-0.64,5.34-4.34,6.33-8.47,6.36c-4.39,0.03-9.69,0.19-10.16-5.64
			c-0.43-5.26,4.2-5.72,8.27-5.71C149.95,127.69,154.71,126.91,156.03,132.66z"/>
		<path class="st17" d="M294.32,281.86c3.73,0.52,8.65-0.75,8.7,5.25c0.05,5.79-4.7,5.56-8.46,5.53c-4.18-0.02-9.82,0.72-9.34-6.08
			C285.63,280.74,290.81,282.51,294.32,281.86z"/>
		<path class="st18" d="M118.71,82.77c4.66,0.65,9.64,0.36,8.65,6.2c-1.06,6.26-6.67,4.42-10.74,4.57
			c-3.47,0.12-7.27-0.41-7.06-5.28C109.88,81.11,115.84,84.01,118.71,82.77z"/>
		<path class="st19" d="M201.14,326.08c-47.16,0-90.69,0-137.61,0c19.26-18.36,35.27-36.43,54.34-50.3
			c6.78-4.94,22.2-6.67,31.61,1.57C166.47,292.22,182.41,308.29,201.14,326.08z"/>
		<path class="st20" d="M67.32,218.19c44.13,0,84.81,0,127.36,0c-9.65,10.9-21.53,17.28-32.17,25c-30.34,22.02-30.46,21.88-61.1-0.2
			C90.86,235.39,80.37,227.69,67.32,218.19z"/>
		<path class="st21" d="M54.56,318.62c0-33.03,0-62.43,0-95.3c18.87,13.55,35.75,25.73,52.7,37.81c4.43,3.16,2.22,5.61-0.51,8.19
			C90.02,285.11,73.31,300.9,54.56,318.62z"/>
		<path class="st22" d="M209.53,318.04c-18.35-17.27-34.8-32.76-51.26-48.24c-3.05-2.87-5.9-5.36-0.53-9.1
			c16.84-11.73,33.48-23.75,51.78-36.8C209.53,255.74,209.53,285.35,209.53,318.04z"/>
	</g>
</g>
</svg>
